<svg id="Layer_1" data-name="Layer 1" xmlns="http://www.w3.org/2000/svg" viewBox="0 0 732.03 788.85"><path d="M543.59,674.86a54.34,54.34,0,0,1,54.9-54.9c30.76,0,54.43,23.9,54.43,54.67C652.92,747.8,543.59,747.78,543.59,674.86Zm99.86,0c0-60.79-90.16-61.1-90.16-.23S643.45,736.16,643.45,674.86Zm-66.26-31.23c22,0,45-3.33,45,18.46,0,9.7-4.73,14.67-11.83,17l13,24.62H610.79l-12.07-23h-9.46v23H577.19Zm33.13,19.17c0-10-10.71-8.52-21.06-8.52v17.27C599.77,671.55,610.32,673.23,610.32,662.8Z" fill="#0063a3"/><path d="M48.86,602.72V788.85l161.81-93.42A308.1,308.1,0,0,1,48.86,602.72Z" fill="#0063a3"/><path d="M209.49,92.58,48.86,0V185A310.2,310.2,0,0,1,209.49,92.58Z" fill="#0063a3"/><path d="M732,394.43,570.25,301a309.33,309.33,0,0,1-.48,187.08Z" fill="#0063a3"/><path d="M155.4,141.39c23.23-5.16,71.39-.27,96.87,7,20.38-16.21,51.17-25.6,81.82-27.15C263.63,108.52,198.45,123.29,155.4,141.39Z" fill="#0063a3"/><path d="M463.74,479.92a416.8,416.8,0,0,0-25.28-103.53c-55.43,25-124,8.88-169.86-30.79-33.41,34.15-65.75,76.68-90.16,114.49C256.15,523.44,384,540.08,463.74,479.92Z" fill="#0063a3"/><path d="M135.94,466.1C67.43,396,43.55,293.61,65.49,215A276,276,0,0,0,81.65,589.43C92.86,547,113.62,503.71,135.94,466.1Z" fill="#0063a3"/><path d="M425.64,346.65a372.77,372.77,0,0,0-55.49-85.1,635.36,635.36,0,0,0-78.09,61.34C333.35,357.34,387.67,364.1,425.64,346.65Z" fill="#0063a3"/><path d="M374.48,218.63c17.78-12.93,42.42-26.76,60.09-33.32-43.84-44.38-114.38-43.2-145-23.94A293.6,293.6,0,0,1,374.48,218.63Z" fill="#0063a3"/><path d="M160.91,488.67c-34.09,58.94-46.53,102.19-51.06,125.2a276,276,0,0,0,340.58-6.21c10.24-24.74,15.47-55.53,15.45-89.38C371.89,574.22,241.89,552.71,160.91,488.67Z" fill="#0063a3"/><path d="M452.81,327c30.17-31.7,24.12-85.56,1.17-116.62-14.14,4.78-43.57,21.94-56.26,33A413.64,413.64,0,0,1,452.81,327Z" fill="#0063a3"/><path d="M505,259.11c4.65,40.7-10.79,75.93-38.17,99.35A448.73,448.73,0,0,1,493,451.19C534.36,397.38,533.1,320.63,505,259.11Z" fill="#0063a3"/><path d="M269.45,299a672.54,672.54,0,0,1,77.22-61.49,262,262,0,0,0-85.35-52C236.05,220,243.94,264.52,269.45,299Z" fill="#0063a3"/><path d="M497.94,494.52c1.4,23.09-.72,49.29-3.42,70,47.34-60.32,63.34-135,57.75-193.22C546.6,420.33,528.65,461.35,497.94,494.52Z" fill="#0063a3"/><path d="M229.55,175.76c-34.94-8.54-75.63-8.91-109.67.72-54.33,77-29.1,189.94,34.2,260.64C178.13,400.5,213,354.9,246,321.75,213.77,281.81,201,220,229.55,175.76Z" fill="#0063a3"/></svg>