<svg width="119" height="128" viewBox="0 0 119 128" fill="none" xmlns="http://www.w3.org/2000/svg">
    <path d="M88.128 109.5C88.128 104.6 92.028 100.6 96.828 100.6C96.928 100.6 96.928 100.6 97.028 100.6C101.828 100.5 105.828 104.4 105.828 109.2C105.828 109.3 105.828 109.4 105.828 109.5C105.928 121.3 88.128 121.3 88.128 109.5ZM104.328 109.5C104.328 99.6 89.728 99.6 89.728 109.5C89.728 119.4 104.328 119.4 104.328 109.5ZM93.628 104.4C97.228 104.4 100.928 103.9 100.928 107.4C101.028 108.7 100.228 109.8 99.028 110.2L101.128 114.2H99.128L97.128 110.5H95.628V114.2H93.628V104.4ZM99.028 107.5C99.028 105.9 97.328 106.1 95.628 106.1V108.9C97.228 109 99.028 109.2 99.028 107.5Z" fill="white"/>
    <path d="M7.92798 97.8V128L34.228 112.8C24.028 110.7 14.828 105.4 7.92798 97.8Z" fill="white"/>
    <path d="M33.928 15L7.92798 0V30C14.828 22.5 23.928 17.2 33.928 15Z" fill="white"/>
    <path d="M118.728 64L92.528 48.8C95.628 58.7 95.628 69.3 92.428 79.2L118.728 64Z" fill="white"/>
    <path d="M25.128 22.9C28.928 22.1 36.728 22.9 40.828 24C44.128 21.4 49.128 19.8 54.128 19.6C44.428 18 34.328 19.1 25.128 22.9Z" fill="white"/>
    <path d="M75.228 77.9C74.628 72.1 73.228 66.5 71.128 61.1C62.128 65.2 51.028 62.5 43.528 56.1C38.028 61.8 33.128 68 28.928 74.7C41.528 84.9 62.228 87.6 75.228 77.9Z" fill="white"/>
    <path d="M22.028 75.6C10.928 64.2 7.02797 47.6 10.628 34.9C-4.47203 52.7 -3.37203 79.2 13.228 95.7C15.228 88.6 18.228 81.9 22.028 75.6Z" fill="white"/>
    <path d="M69.028 56.2C66.628 51.2 63.628 46.6 60.028 42.4C55.528 45.4 51.328 48.7 47.328 52.4C54.028 58 62.828 59.1 69.028 56.2Z" fill="white"/>
    <path d="M60.728 35.5C63.728 33.3 67.028 31.5 70.528 30.1C63.428 22.9 51.928 23.1 47.028 26.2C52.028 28.5 56.728 31.6 60.728 35.5Z" fill="white"/>
    <path d="M26.028 79.3C20.528 88.9 18.528 95.9 17.728 99.6C34.228 112 57.028 111.6 73.028 98.6C74.828 94 75.628 89 75.528 84.1C60.328 93.2 39.228 89.7 26.028 79.3Z" fill="white"/>
    <path d="M73.428 53.1C78.328 48 77.328 39.2 73.628 34.2C70.328 35.5 67.228 37.3 64.528 39.5C68.028 43.6 71.028 48.2 73.428 53.1Z" fill="white"/>
    <path d="M81.928 42C82.728 48.1 80.428 54.1 75.728 58.1C77.628 62.9 79.128 68 79.928 73.1C86.628 64.5 86.428 52 81.928 42Z" fill="white"/>
    <path d="M43.628 48.5C47.528 44.9 51.728 41.5 56.128 38.5C52.128 34.8 47.428 32 42.328 30.1C38.228 35.7 39.528 42.9 43.628 48.5Z" fill="white"/>
    <path d="M80.728 80.2C80.928 84 80.728 87.8 80.128 91.6C87.028 82.7 90.428 71.5 89.528 60.2C88.928 67.7 85.828 74.7 80.728 80.2Z" fill="white"/>
    <path d="M37.228 28.5C31.328 27.1 25.228 27.1 19.428 28.6C10.628 41.1 14.728 59.4 24.928 70.9C29.328 64.2 34.328 57.9 39.828 52.2C34.628 45.7 32.528 35.7 37.228 28.5Z" fill="white"/>
</svg>
